<svg width="14" height="14" viewBox="0 0 14 14" fill="none" xmlns="http://www.w3.org/2000/svg">
<path fill-rule="evenodd" clip-rule="evenodd" d="M3.35903 10C3.58191 10 3.66273 10.0232 3.74421 10.0668C3.82569 10.1104 3.88964 10.1743 3.93322 10.2558C3.97679 10.3373 4 10.4181 4 10.641V13.359C4 13.5819 3.97679 13.6627 3.93322 13.7442C3.88964 13.8257 3.82569 13.8896 3.74421 13.9332C3.66273 13.9768 3.58191 14 3.35903 14H0.640971C0.418092 14 0.33727 13.9768 0.255789 13.9332C0.174307 13.8896 0.11036 13.8257 0.0667832 13.7442C0.0232064 13.6627 0 13.5819 0 13.359V10.641C0 10.4181 0.0232064 10.3373 0.0667832 10.2558C0.11036 10.1743 0.174307 10.1104 0.255789 10.0668C0.33727 10.0232 0.418092 10 0.640971 10H3.35903ZM8.35903 10C8.58191 10 8.66273 10.0232 8.74421 10.0668C8.82569 10.1104 8.88964 10.1743 8.93322 10.2558C8.97679 10.3373 9 10.4181 9 10.641V13.359C9 13.5819 8.97679 13.6627 8.93322 13.7442C8.88964 13.8257 8.82569 13.8896 8.74421 13.9332C8.66273 13.9768 8.58191 14 8.35903 14H5.64097C5.41809 14 5.33727 13.9768 5.25579 13.9332C5.17431 13.8896 5.11036 13.8257 5.06678 13.7442C5.02321 13.6627 5 13.5819 5 13.359V10.641C5 10.4181 5.02321 10.3373 5.06678 10.2558C5.11036 10.1743 5.17431 10.1104 5.25579 10.0668C5.33727 10.0232 5.41809 10 5.64097 10H8.35903ZM13.359 10C13.5819 10 13.6627 10.0232 13.7442 10.0668C13.8257 10.1104 13.8896 10.1743 13.9332 10.2558C13.9768 10.3373 14 10.4181 14 10.641V13.359C14 13.5819 13.9768 13.6627 13.9332 13.7442C13.8896 13.8257 13.8257 13.8896 13.7442 13.9332C13.6627 13.9768 13.5819 14 13.359 14H10.641C10.4181 14 10.3373 13.9768 10.2558 13.9332C10.1743 13.8896 10.1104 13.8257 10.0668 13.7442C10.0232 13.6627 10 13.5819 10 13.359V10.641C10 10.4181 10.0232 10.3373 10.0668 10.2558C10.1104 10.1743 10.1743 10.1104 10.2558 10.0668C10.3373 10.0232 10.4181 10 10.641 10H13.359ZM3.35903 5C3.58191 5 3.66273 5.02321 3.74421 5.06678C3.82569 5.11036 3.88964 5.17431 3.93322 5.25579C3.97679 5.33727 4 5.41809 4 5.64097V8.35903C4 8.58191 3.97679 8.66273 3.93322 8.74421C3.88964 8.82569 3.82569 8.88964 3.74421 8.93322C3.66273 8.97679 3.58191 9 3.35903 9H0.640971C0.418092 9 0.33727 8.97679 0.255789 8.93322C0.174307 8.88964 0.11036 8.82569 0.0667832 8.74421C0.0232064 8.66273 0 8.58191 0 8.35903V5.64097C0 5.41809 0.0232064 5.33727 0.0667832 5.25579C0.11036 5.17431 0.174307 5.11036 0.255789 5.06678C0.33727 5.02321 0.418092 5 0.640971 5H3.35903ZM8.35903 5C8.58191 5 8.66273 5.02321 8.74421 5.06678C8.82569 5.11036 8.88964 5.17431 8.93322 5.25579C8.97679 5.33727 9 5.41809 9 5.64097V8.35903C9 8.58191 8.97679 8.66273 8.93322 8.74421C8.88964 8.82569 8.82569 8.88964 8.74421 8.93322C8.66273 8.97679 8.58191 9 8.35903 9H5.64097C5.41809 9 5.33727 8.97679 5.25579 8.93322C5.17431 8.88964 5.11036 8.82569 5.06678 8.74421C5.02321 8.66273 5 8.58191 5 8.35903V5.64097C5 5.41809 5.02321 5.33727 5.06678 5.25579C5.11036 5.17431 5.17431 5.11036 5.25579 5.06678C5.33727 5.02321 5.41809 5 5.64097 5H8.35903ZM13.359 5C13.5819 5 13.6627 5.02321 13.7442 5.06678C13.8257 5.11036 13.8896 5.17431 13.9332 5.25579C13.9768 5.33727 14 5.41809 14 5.64097V8.35903C14 8.58191 13.9768 8.66273 13.9332 8.74421C13.8896 8.82569 13.8257 8.88964 13.7442 8.93322C13.6627 8.97679 13.5819 9 13.359 9H10.641C10.4181 9 10.3373 8.97679 10.2558 8.93322C10.1743 8.88964 10.1104 8.82569 10.0668 8.74421C10.0232 8.66273 10 8.58191 10 8.35903V5.64097C10 5.41809 10.0232 5.33727 10.0668 5.25579C10.1104 5.17431 10.1743 5.11036 10.2558 5.06678C10.3373 5.02321 10.4181 5 10.641 5H13.359ZM3.35903 0C3.58191 0 3.66273 0.0232064 3.74421 0.0667832C3.82569 0.11036 3.88964 0.174307 3.93322 0.255789C3.97679 0.33727 4 0.418092 4 0.640971V3.35903C4 3.58191 3.97679 3.66273 3.93322 3.74421C3.88964 3.82569 3.82569 3.88964 3.74421 3.93322C3.66273 3.97679 3.58191 4 3.35903 4H0.640971C0.418092 4 0.33727 3.97679 0.255789 3.93322C0.174307 3.88964 0.11036 3.82569 0.0667832 3.74421C0.0232064 3.66273 0 3.58191 0 3.35903V0.640971C0 0.418092 0.0232064 0.33727 0.0667832 0.255789C0.11036 0.174307 0.174307 0.11036 0.255789 0.0667832C0.33727 0.0232064 0.418092 0 0.640971 0H3.35903ZM8.35903 0C8.58191 0 8.66273 0.0232064 8.74421 0.0667832C8.82569 0.11036 8.88964 0.174307 8.93322 0.255789C8.97679 0.33727 9 0.418092 9 0.640971V3.35903C9 3.58191 8.97679 3.66273 8.93322 3.74421C8.88964 3.82569 8.82569 3.88964 8.74421 3.93322C8.66273 3.97679 8.58191 4 8.35903 4H5.64097C5.41809 4 5.33727 3.97679 5.25579 3.93322C5.17431 3.88964 5.11036 3.82569 5.06678 3.74421C5.02321 3.66273 5 3.58191 5 3.35903V0.640971C5 0.418092 5.02321 0.33727 5.06678 0.255789C5.11036 0.174307 5.17431 0.11036 5.25579 0.0667832C5.33727 0.0232064 5.41809 0 5.64097 0H8.35903ZM13.359 0C13.5819 0 13.6627 0.0232064 13.7442 0.0667832C13.8257 0.11036 13.8896 0.174307 13.9332 0.255789C13.9768 0.33727 14 0.418092 14 0.640971V3.35903C14 3.58191 13.9768 3.66273 13.9332 3.74421C13.8896 3.82569 13.8257 3.88964 13.7442 3.93322C13.6627 3.97679 13.5819 4 13.359 4H10.641C10.4181 4 10.3373 3.97679 10.2558 3.93322C10.1743 3.88964 10.1104 3.82569 10.0668 3.74421C10.0232 3.66273 10 3.58191 10 3.35903V0.640971C10 0.418092 10.0232 0.33727 10.0668 0.255789C10.1104 0.174307 10.1743 0.11036 10.2558 0.0667832C10.3373 0.0232064 10.4181 0 10.641 0H13.359Z" fill="black"/>
</svg>
