<svg width="18" height="16" viewBox="0 0 18 16" fill="none" xmlns="http://www.w3.org/2000/svg">
<path fill-rule="evenodd" clip-rule="evenodd" d="M9.72788 0.273143L17.8054 7.39878C18.0332 7.59973 18.055 7.94729 17.854 8.17508C17.7496 8.29343 17.5994 8.36123 17.4416 8.36123H14.4981V14.9C14.4981 15.5075 14.0056 16 13.3981 16H10.6492L10.6496 12.1931C10.6496 11.3301 9.9868 10.6219 9.1425 10.5498L9.00019 10.5437C8.08926 10.5437 7.35081 11.2822 7.35081 12.1931L7.35019 16H4.60226C3.99475 16 3.50226 15.5075 3.50226 14.9V8.36123H0.558789C0.255032 8.36123 0.00878906 8.11499 0.00878906 7.81123C0.00878906 7.65341 0.0765888 7.50319 0.194944 7.39878L8.2725 0.273143C8.68829 -0.093652 9.31208 -0.093652 9.72788 0.273143Z" fill="black"/>
</svg>
